<?xml version="1.0" encoding="utf-8"?>
<!-- Generator: Adobe Illustrator 24.1.0, SVG Export Plug-In . SVG Version: 6.00 Build 0)  -->
<svg version="1.1" id="Layer_1" xmlns="http://www.w3.org/2000/svg" xmlns:xlink="http://www.w3.org/1999/xlink" x="0px" y="0px"
	 viewBox="0 0 1366 768" style="enable-background:new 0 0 1366 768;" xml:space="preserve">
<style type="text/css">
	.st0{fill:#E9382A;stroke:#EF5829;stroke-width:0.75;stroke-miterlimit:10;}
	.st1{fill:#FFFFFF;}
	.st2{fill:#95CA43;}
	.st3{fill:#A6CE38;}
	.st4{fill:#BBCD31;}
	.st5{fill:#DBCC23;}
	.st6{fill:#EEAF1E;}
	.st7{fill:#F48620;}
	.st8{fill:#D8DBD9;}
	.st9{fill:#EF5829;}
	.st10{font-family:'HelveticaNeue-Bold';}
	.st11{font-size:15.1344px;}
	.st12{font-size:22.7016px;}
	.st13{fill:#404041;}
	.st14{font-size:13.2426px;}
	.st15{fill:#7C7C7C;}
	.st16{font-family:'HelveticaNeue';}
	.st17{fill:#EEAF1E;stroke:#EEAF1E;stroke-width:0.75;stroke-miterlimit:10;}
	.st18{fill:#BBCD31;stroke:#BBCD31;stroke-width:0.75;stroke-miterlimit:10;}
	.st19{fill:#95CA43;stroke:#95CA43;stroke-width:0.75;stroke-miterlimit:10;}
	.st20{fill:none;stroke:#F48620;stroke-width:0.75;stroke-miterlimit:10;}
	.st21{fill:#DBCC23;stroke:#DBCC23;stroke-width:0.75;stroke-miterlimit:10;}
	.st22{fill:#A6CE38;stroke:#A6CE38;stroke-width:0.75;stroke-miterlimit:10;}
	.st23{fill:none;stroke:#EF5829;stroke-width:0.75;stroke-miterlimit:10;}
	.st24{fill:none;stroke:#EEAF1E;stroke-width:0.75;stroke-miterlimit:10;}
	.st25{fill:none;stroke:#BBCD31;stroke-width:0.75;stroke-miterlimit:10;}
	.st26{fill:none;stroke:#95CA43;stroke-width:0.75;stroke-miterlimit:10;}
	.st27{fill:none;stroke:#DBCC23;stroke-width:0.75;stroke-miterlimit:10;}
	.st28{fill:none;stroke:#A6CE38;stroke-width:0.75;stroke-miterlimit:10;}
	.st29{fill-rule:evenodd;clip-rule:evenodd;fill:#A6CE38;}
</style>
<line class="st0" x1="173.87" y1="620.06" x2="173.87" y2="661.84"/>
<rect x="1085.41" y="364.04" transform="matrix(0.7071 -0.7071 0.7071 0.7071 16.5699 980.1756)" class="st1" width="212.1" height="212.1"/>
<g>
	<path class="st2" d="M1191.46,622.63l-152.54-152.54l1.28-1.28l151.26-151.26L1344,470.09L1191.46,622.63z M1044.05,470.09
		l147.41,147.41l147.41-147.41l-147.41-147.41L1044.05,470.09z"/>
</g>
<g>
	<polygon class="st1" points="1077.33,396.79 1087.26,406.72 1073.64,420.33 1128.06,407.36 1141.03,352.94 1127.42,366.56 
		1117.49,356.63 1172.4,301.72 1022.42,151.74 872.44,301.72 1022.42,451.7 	"/>
	<path class="st3" d="M1022.42,453.11c-0.38,0-0.74-0.15-1-0.41L871.44,302.72c-0.27-0.27-0.41-0.63-0.41-1s0.15-0.74,0.41-1
		l149.98-149.98c0.55-0.55,1.45-0.55,2,0l149.98,149.98c0.55,0.55,0.55,1.45,0,2l-53.91,53.91l7.93,7.92l12.62-12.62
		c0.45-0.45,1.14-0.54,1.69-0.23c0.55,0.31,0.83,0.95,0.69,1.56l-12.97,54.42c-0.12,0.52-0.53,0.93-1.05,1.05l-54.42,12.97
		c-0.61,0.15-1.26-0.13-1.56-0.69c-0.31-0.55-0.21-1.24,0.23-1.69l12.62-12.62l-7.92-7.93l-53.91,53.91
		C1023.16,452.96,1022.8,453.11,1022.42,453.11z M874.45,301.72l147.98,147.98l53.91-53.91c0.53-0.53,1.47-0.53,2,0l9.93,9.93
		c0.55,0.55,0.55,1.45,0,2l-10.08,10.08l48.71-11.61l11.61-48.71l-10.08,10.08c-0.53,0.53-1.47,0.53-2,0l-9.93-9.93
		c-0.55-0.55-0.55-1.45,0-2l53.91-53.91l-147.98-147.97L874.45,301.72z"/>
</g>
<g>
	<polygon class="st1" points="947.33,415.18 957.26,405.25 970.88,418.87 957.9,364.45 903.48,351.47 917.1,365.09 907.17,375.02 
		852.26,320.11 702.29,470.09 852.26,620.06 1002.24,470.09 	"/>
	<path class="st4" d="M852.26,622.63L699.72,470.09l152.54-152.54l54.91,54.91l7.36-7.36l-16.87-16.87l61.74,14.72l14.72,61.74
		l-16.87-16.87l-7.36,7.37l54.91,54.91L852.26,622.63z M704.85,470.09L852.26,617.5l147.41-147.41l-54.91-54.91l12.49-12.49
		l10.37,10.37l-11.23-47.11l-47.11-11.23l10.37,10.37l-12.49,12.49l-54.91-54.91L704.85,470.09z"/>
</g>
<g>
	<polygon class="st1" points="738.13,396.79 748.06,406.72 734.44,420.33 788.87,407.36 801.84,352.94 788.22,366.56 778.29,356.63 
		833.2,301.72 683.23,151.74 533.25,301.72 683.23,451.7 	"/>
	<path class="st5" d="M683.22,454.26L530.69,301.72l152.54-152.54l152.54,152.54l-54.91,54.91l7.36,7.36l16.87-16.87l-14.72,61.74
		l-61.74,14.72l16.87-16.87l-7.36-7.36L683.22,454.26z M535.81,301.72l147.41,147.42l54.91-54.91l12.49,12.49l-10.37,10.37
		l47.11-11.23l11.23-47.11l-10.37,10.37l-12.49-12.49l54.91-54.91L683.22,154.31L535.81,301.72z"/>
</g>
<g>
	<polygon class="st1" points="608.14,415.18 618.06,405.25 631.68,418.87 618.71,364.45 564.29,351.47 577.91,365.09 567.98,375.02 
		513.07,320.11 363.09,470.09 513.07,620.06 663.05,470.09 	"/>
	<path class="st6" d="M513.07,622.63L360.53,470.09l152.54-152.54l54.91,54.91l7.36-7.37l-16.87-16.87l61.74,14.72l14.72,61.74
		l-16.87-16.87l-7.36,7.37l54.91,54.91L513.07,622.63z M365.65,470.09L513.07,617.5l147.42-147.42l-54.91-54.91l12.49-12.49
		l10.37,10.37l-11.23-47.11l-47.11-11.23l10.37,10.37l-12.49,12.49l-54.91-54.91L365.65,470.09z"/>
</g>
<g>
	<polygon class="st1" points="398.94,396.79 408.87,406.72 395.25,420.33 449.67,407.36 462.64,352.94 449.02,366.56 439.1,356.63 
		494.01,301.72 344.03,151.74 194.05,301.72 344.03,451.7 	"/>
	<g>
		<path class="st7" d="M344.03,454.26L191.49,301.72l152.54-152.54l152.54,152.54l-54.91,54.91l7.36,7.36l16.87-16.87l-14.72,61.74
			l-61.74,14.72l16.87-16.87l-7.36-7.37L344.03,454.26z M196.61,301.72l147.42,147.42l54.91-54.91l12.49,12.49l-10.37,10.37
			l47.11-11.23l11.23-47.11l-10.37,10.37l-12.49-12.49l54.91-54.91L344.03,154.31L196.61,301.72z"/>
	</g>
</g>
<g>
	<polygon class="st8" points="249.29,304.09 241.87,308.5 260.75,320.11 	"/>
	<polygon class="st8" points="438.77,304.09 446.19,308.5 427.31,320.11 	"/>
</g>
<g>
	<polygon class="st8" points="587.93,304.09 580.51,308.5 599.38,320.11 	"/>
	<polygon class="st8" points="777.41,304.09 784.83,308.5 765.95,320.11 	"/>
</g>
<g>
	<polygon class="st8" points="926.56,304.09 919.14,308.5 938.02,320.11 	"/>
	<polygon class="st8" points="1116.04,304.09 1123.46,308.5 1104.59,320.11 	"/>
</g>
<g>
	<polygon class="st8" points="418.57,472.46 411.15,476.86 430.03,488.47 	"/>
	<polygon class="st8" points="608.05,472.46 615.47,476.86 596.59,488.47 	"/>
</g>
<g>
	<polygon class="st8" points="757.53,472.46 750.11,476.86 768.98,488.47 	"/>
	<polygon class="st8" points="947,472.46 954.42,476.86 935.55,488.47 	"/>
</g>
<g>
	<polygon class="st8" points="1096.48,472.46 1089.06,476.86 1107.94,488.47 	"/>
	<polygon class="st8" points="1285.96,472.46 1293.38,476.86 1274.5,488.47 	"/>
</g>
<polygon class="st7" points="427.31,320.11 260.75,320.11 241.87,301.72 260.75,283.33 427.31,283.33 446.19,301.72 "/>
<polygon class="st2" points="1274.74,488.47 1108.18,488.47 1089.3,470.09 1108.18,451.7 1274.74,451.7 1293.62,470.09 "/>
<polygon class="st3" points="1104.59,320.11 938.02,320.11 919.14,301.72 938.02,283.33 1104.59,283.33 1123.46,301.72 "/>
<polygon class="st4" points="935.55,488.47 768.98,488.47 750.11,470.09 768.98,451.7 935.55,451.7 954.42,470.09 "/>
<polygon class="st6" points="596.35,488.47 429.79,488.47 410.91,470.09 429.79,451.7 596.35,451.7 615.23,470.09 "/>
<polygon class="st5" points="765.95,320.11 599.38,320.11 580.51,301.72 599.38,283.33 765.95,283.33 784.83,301.72 "/>
<g>
	<text transform="matrix(1 0 0 1 104.2339 682.6797)" class="st9 st10 st11">MAIN KEY/VALUES</text>
</g>
<text transform="matrix(1 0 0 1 283.6411 310.207)" class="st1 st10 st12">PROGRAM</text>
<text transform="matrix(1 0 0 1 457.0229 478.5742)" class="st1 st10 st12">WORKOUT</text>
<text transform="matrix(1 0 0 1 628.7085 310.208)" class="st1 st10 st12">MINDSET</text>
<text transform="matrix(1 0 0 1 950.1699 310.208)" class="st1 st10 st12">INSPIRATION</text>
<text transform="matrix(1 0 0 1 793.4883 478.5752)" class="st1 st10 st12">NUTRITION</text>
<text transform="matrix(1 0 0 1 1144.8594 478.5742)" class="st1 st10 st12">ACTIVITY</text>
<polygon class="st1" points="268.94,415.18 278.87,405.25 292.49,418.87 279.51,364.45 225.09,351.47 238.71,365.09 228.78,375.02 
	173.87,320.11 23.9,470.09 173.87,620.06 323.85,470.09 "/>
<path class="st9" d="M173.87,622.63L21.33,470.09l152.54-152.54l54.91,54.91l7.36-7.37l-16.87-16.87l61.74,14.72l14.72,61.74
	l-16.87-16.87l-7.36,7.36l54.91,54.91L173.87,622.63z M26.46,470.09L173.87,617.5l147.42-147.41l-54.91-54.91l12.49-12.49
	l10.37,10.37l-11.23-47.11l-47.11-11.23l10.37,10.37l-12.49,12.49l-54.91-54.91L26.46,470.09z"/>
<g>
	<polygon class="st8" points="79.13,472.46 71.71,476.86 90.59,488.47 	"/>
	<polygon class="st8" points="268.61,472.46 276.03,476.86 257.16,488.47 	"/>
</g>
<polygon class="st9" points="257.16,488.47 90.59,488.47 71.71,470.09 90.59,451.7 257.16,451.7 276.03,470.09 "/>
<text transform="matrix(1 0 0 1 123.4995 478.5742)" class="st1 st10 st12">PERSON</text>
<text transform="matrix(1 0 0 1 149.4678 521.5791)"><tspan x="0" y="0" class="st13 st10 st14">/person</tspan><tspan x="-40.1" y="17.03" class="st15 st16 st14">main entity for person</tspan><tspan x="8.22" y="34.05" class="st15 st16 st14">(user)</tspan></text>
<text transform="matrix(1 0 0 1 318.6685 353.708)"><tspan x="0" y="0" class="st13 st10 st14">/program</tspan><tspan x="-29.57" y="17.03" class="st15 st16 st14">list and set program</tspan><tspan x="-20.25" y="34.05" class="st15 st16 st14">e.g. Lose Weight</tspan></text>
<text transform="matrix(1 0 0 1 484.4985 520.04)"><tspan x="0" y="0" class="st13 st10 st14">/workout</tspan><tspan x="-32.99" y="17.03" class="st15 st16 st14">each day of program</tspan><tspan x="-9.69" y="34.05" class="st15 st16 st14">has workout </tspan><tspan x="0.62" y="51.08" class="st15 st16 st14">for a user</tspan></text>
<text transform="matrix(1 0 0 1 823.6221 520.04)"><tspan x="0" y="0" class="st13 st10 st14">/nutrition</tspan><tspan x="-14.36" y="17.03" class="st15 st16 st14">get meal plans</tspan></text>
<text transform="matrix(1 0 0 1 1166.4443 520.04)"><tspan x="0" y="0" class="st13 st10 st14">/activity</tspan><tspan x="-37.9" y="17.03" class="st15 st16 st14">store user completed</tspan><tspan x="9.32" y="34.05" class="st15 st16 st14">tasks</tspan></text>
<text transform="matrix(1 0 0 1 657.7109 353.708)"><tspan x="0" y="0" class="st13 st10 st14">/mindset</tspan><tspan x="-29.33" y="17.03" class="st15 st16 st14">get weekly mindset</tspan><tspan x="11.76" y="34.05" class="st15 st16 st14">video</tspan></text>
<text transform="matrix(1 0 0 1 988.498 353.708)"><tspan x="0" y="0" class="st13 st10 st14">/inspiration</tspan><tspan x="-16.82" y="17.03" class="st15 st16 st14">get the daily dose</tspan><tspan x="-2.47" y="34.05" class="st15 st16 st14">of inspiration</tspan></text>
<text transform="matrix(1 0 0 1 90.228 700.3965)"><tspan x="0" y="0" class="st15 st16 st14">email, phone, address, goal,</tspan><tspan x="-16.18" y="17.03" class="st15 st16 st14"> demographics eg Height, weight,</tspan><tspan x="0.76" y="34.05" class="st15 st16 st14">fitness level (Beg | Int | Adv),</tspan><tspan x="22.58" y="51.08" class="st15 st16 st14">nutrition preferences</tspan></text>
<text transform="matrix(1 0 0 1 1134.5566 700.3965)"><tspan x="0" y="0" class="st15 st16 st14">e.g. recipe cooked,</tspan><tspan x="-2.33" y="17.03" class="st15 st16 st14">workout completed,</tspan><tspan x="-15.58" y="34.05" class="st15 st16 st14">mindset video watched, </tspan><tspan x="-24.4" y="51.08" class="st15 st16 st14">my Progress weight update</tspan></text>
<line class="st17" x1="513.07" y1="620.06" x2="513.07" y2="661.84"/>
<g>
	<text transform="matrix(1 0 0 1 460.4556 682.6797)" class="st6 st10 st11">SUB ENTITIES</text>
</g>
<text transform="matrix(1 0 0 1 528.7534 715.5303)"><tspan x="0" y="0" class="st15 st16 st14">/workout-plan</tspan><tspan x="0" y="17.03" class="st15 st16 st14">/circuit</tspan><tspan x="0" y="34.05" class="st15 st16 st14">/exercise</tspan></text>
<text transform="matrix(1 0 0 1 422.8594 716.9951)" class="st15 st16 st14">/workout-video</text>
<line class="st18" x1="852.56" y1="620.06" x2="852.56" y2="661.84"/>
<g>
	<text transform="matrix(1 0 0 1 799.9434 682.6797)" class="st4 st10 st11">SUB ENTITIES</text>
</g>
<text transform="matrix(1 0 0 1 765.2207 715.5303)"><tspan x="0" y="0" class="st15 st16 st14">/food-nearby</tspan><tspan x="0" y="17.03" class="st15 st16 st14">/heatlhy-plate</tspan></text>
<text transform="matrix(1 0 0 1 867.6895 715.5303)"><tspan x="0" y="0" class="st15 st16 st14">/recipe</tspan><tspan x="0" y="17.03" class="st15 st16 st14">/mealtype</tspan></text>
<line class="st19" x1="1191.64" y1="620.06" x2="1191.64" y2="661.84"/>
<g>
	<text transform="matrix(1 0 0 1 1111.7227 682.6797)" class="st2 st10 st11">TYPES OF ACTIVITIES</text>
</g>
<line class="st20" x1="344.36" y1="109.72" x2="344.36" y2="151.49"/>
<text transform="matrix(1 0 0 1 291.7437 33.8398)" class="st7 st10 st11">SUB ENTITIES</text>
<line class="st21" x1="683.41" y1="109.72" x2="683.41" y2="151.49"/>
<g>
	<text transform="matrix(1 0 0 1 632.688 33.8398)" class="st5 st10 st11">SUB ENTITIES</text>
</g>
<text transform="matrix(1 0 0 1 324.0459 68.583)"><tspan x="0" y="0" class="st15 st16 st11">/week</tspan><tspan x="5.46" y="17.03" class="st15 st16 st11">/day</tspan></text>
<text transform="matrix(1 0 0 1 643.7129 68.583)" class="st15 st16 st11">/file (media)</text>
<text transform="matrix(1 0 0 1 1000.5576 68.583)" class="st15 st16 st11">/quote</text>
<line class="st22" x1="1022.42" y1="109.72" x2="1022.42" y2="151.49"/>
<g>
	<text transform="matrix(1 0 0 1 971.6992 33.8398)" class="st3 st10 st11">SUB ENTITIES</text>
</g>
<rect x="66.86" y="661.84" class="st23" width="214.03" height="97.22"/>
<rect x="406.05" y="661.84" class="st24" width="214.03" height="97.22"/>
<rect x="745.54" y="661.84" class="st25" width="214.03" height="97.22"/>
<rect x="1084.63" y="661.84" class="st26" width="214.03" height="97.22"/>
<rect x="237.34" y="13" class="st20" width="214.03" height="97.22"/>
<rect x="576.39" y="13" class="st27" width="214.03" height="97.22"/>
<rect x="915.4" y="13" class="st28" width="214.03" height="97.22"/>
<path class="st5" d="M680.11,215.52c0,1.61-0.92,3.02-1.97,3.02c-1.05,0-1.97-1.42-1.97-3.02c0-1.61,0.92-3.02,1.97-3.02
	C679.19,212.5,680.11,213.91,680.11,215.52 M662.4,217.51c0,0-1.43-6.62,5.33-14.15c3.24-3.63,7.54-6.99,18.14-7.07
	c4.14-0.03,10.47,0.95,15.39,6.15c2.98,3.14,5.17,7.12,4.54,13.61c-0.13,1.4-2.14,3.03-0.73,5.75c0,0,3.03,5.35,2.93,6.23
	c0,0,0.05,1.64-2.46,1.68c0,0-0.63,0.08-0.45,1.46l0.03,2.03c0,0-0.08,0.6-1.18,0.96c0,0-0.22,0.21,0.1,0.61
	c0,0,0.58,0.64-0.42,2.04c-0.38,0.51-0.97,1.15-0.6,2.46c0,0,0.47,2.54-0.52,3.14c0,0-1.13,1.34-5.69,0.78
	c-1.58-0.19-4.53-0.97-6.27,1.23c0,0-4.19,7.96-4.51,9.84c0,0-7.15-12.72-15.87-14.69c0,0,2.13-4.79-2.2-11
	C667.97,228.58,662.56,221.44,662.4,217.51 M689.29,217.1c-0.01,0.96,0.02,2.29,0.09,4.2l3.15-0.12c-0.05-1.38-0.08-2.93-0.08-4.08
	h2.45v4.33h3.16v-7.49h-14.98c-0.58-2.63-2.56-4.59-4.93-4.59c-2.83,0-5.12,2.76-5.12,6.17c0,3.41,2.3,6.17,5.12,6.17
	c2.37,0,4.35-1.96,4.93-4.59L689.29,217.1L689.29,217.1z"/>
<g>
	<g>
		<path class="st4" d="M866.16,373.4c-3.16,0-5.8,2.45-6.02,5.6l-1.61,22.51c-0.07,0.98,0.27,1.95,0.94,2.67
			c0.67,0.73,1.61,1.14,2.59,1.14h0.1l-0.55,17.63c-0.03,0.75,0.26,1.46,0.79,2c0.53,0.55,1.25,0.83,2,0.83h2.31
			c1.54,0,2.82-1.21,2.82-2.75v-46.28C869.53,374.89,868.02,373.4,866.16,373.4"/>
		<path class="st4" d="M852.87,373.44h-0.24c-0.56,0-0.99,0.42-0.99,0.98v9.93c0,0.88-0.74,1.6-1.62,1.6h-0.24
			c-0.88,0-1.62-0.71-1.62-1.6v-9.93c0-0.56-0.42-0.98-0.99-0.98h-0.24c-0.56,0-1.01,0.42-1.01,0.98v9.93c0,0.88-0.72,1.6-1.6,1.6
			h-0.24c-0.88,0-1.56-0.71-1.56-1.6v-9.93c0-0.56-0.48-0.98-1.05-0.98h-0.24c-0.56,0-1.03,0.42-1.03,0.98v15.01
			c0,1.84,1.51,3.31,3.35,3.31H844l-0.94,30.2c-0.02,0.75,0.26,1.47,0.78,2.01c0.53,0.54,1.25,0.83,2,0.83h2.22
			c0.76,0,1.48-0.29,2-0.83c0.52-0.54,0.81-1.26,0.78-2.02l-0.94-30.2h0.63c1.84,0,3.33-1.46,3.33-3.3v-15.01
			C853.87,373.86,853.43,373.44,852.87,373.44"/>
	</g>
</g>
<g>
	<g>
		<path class="st6" d="M487.82,411.22c-1.51,0.29-2.51,1.75-2.22,3.27c0.26,1.33,1.43,2.26,2.74,2.26c0.17,0,0.35-0.02,0.53-0.05
			l11.49-2.21c0.65-0.13,1.24-0.48,1.66-1l4.94-6.22l-1.65-0.84c-1.22-0.61-2.06-1.73-2.36-3.08l-4.65,5.87L487.82,411.22z"/>
		<path class="st6" d="M534.87,380.84c0,3.38-2.74,6.12-6.11,6.12c-3.38,0-6.12-2.74-6.12-6.12c0-3.38,2.74-6.12,6.12-6.12
			C532.13,374.72,534.87,377.46,534.87,380.84"/>
		<path class="st6" d="M515.4,379.31c-0.64-0.66-1.24-0.93-1.9-0.93c-0.24,0-0.48,0.04-0.73,0.09l-10.5,2.49
			c-1.45,0.34-2.35,1.8-2,3.25c0.3,1.24,1.4,2.08,2.63,2.08c0.21,0,0.41-0.03,0.62-0.08l8.94-2.12c0.58,0.65,3.49,3.8,4.02,4.35
			c-3.7,3.96-7.39,7.91-11.09,11.87c-0.06,0.06-0.11,0.13-0.16,0.19c-1.08,1.38-0.75,3.54,0.88,4.35l1.97,1l9.37,4.78l-5.89,9.54
			c-0.81,1.31-0.4,3.03,0.91,3.84c0.46,0.28,0.96,0.41,1.46,0.41c0.93,0,1.85-0.47,2.38-1.32l7.47-12.12
			c0.41-0.66,0.52-1.47,0.31-2.22c-0.21-0.75-0.73-1.38-1.44-1.74l-7.68-3.9l8.08-8.64l6.09,5.16c0.51,0.43,1.13,0.64,1.75,0.64
			c0.66,0,1.32-0.25,1.84-0.72l6.99-6.52c1.09-1.02,1.16-2.72,0.14-3.81c-0.53-0.57-1.25-0.86-1.97-0.86
			c-0.66,0-1.32,0.24-1.83,0.72l-5.23,4.87C530.81,394,517.7,381.66,515.4,379.31"/>
	</g>
</g>
<g>
	<g>
		<path class="st9" d="M159.64,376.55c-2.34,0-4.26,1.91-4.26,4.26v40.65c0,2.34,1.92,4.26,4.26,4.26h28.91
			c2.35,0,4.26-1.92,4.26-4.26V380.8c0-2.34-1.92-4.26-4.26-4.26h-5.39v3.7c0,0.65-0.5,1.16-1.08,1.16h-16c-0.58,0-1-0.52-1-1.16
			v-3.7H159.64z M160.93,385.57h3.28c0.46,0,0.82,0.36,0.82,0.81v3.28c0,0.46-0.36,0.82-0.82,0.82h-3.28
			c-0.45,0-0.82-0.37-0.82-0.82v-3.28C160.12,385.93,160.48,385.57,160.93,385.57 M171.6,387.2h15.63c0.47,0,0.86,0.37,0.86,0.83
			c0,0.46-0.38,0.83-0.86,0.83H171.6c-0.47,0-0.85-0.37-0.85-0.83C170.75,387.56,171.13,387.2,171.6,387.2 M160.93,395.93h3.28
			c0.46,0,0.82,0.36,0.82,0.82v3.27c0,0.46-0.36,0.82-0.82,0.82h-3.28c-0.45,0-0.82-0.36-0.82-0.82v-3.27
			C160.12,396.3,160.48,395.93,160.93,395.93 M171.6,397.56h15.63c0.47,0,0.86,0.37,0.86,0.83c0,0.46-0.38,0.83-0.86,0.83H171.6
			c-0.47,0-0.85-0.37-0.85-0.83C170.75,397.93,171.13,397.56,171.6,397.56 M160.93,406.3h3.28c0.46,0,0.82,0.37,0.82,0.82v3.28
			c0,0.45-0.36,0.82-0.82,0.82h-3.28c-0.45,0-0.82-0.37-0.82-0.82v-3.28C160.12,406.67,160.48,406.3,160.93,406.3 M171.6,407.93
			h15.63c0.47,0,0.86,0.37,0.86,0.83c0,0.46-0.38,0.83-0.86,0.83H171.6c-0.47,0-0.85-0.37-0.85-0.83
			C170.75,408.3,171.13,407.93,171.6,407.93 M160.93,416.67h3.28c0.46,0,0.82,0.37,0.82,0.82v3.28c0,0.46-0.36,0.82-0.82,0.82h-3.28
			c-0.45,0-0.82-0.36-0.82-0.82v-3.28C160.12,417.03,160.48,416.67,160.93,416.67 M171.6,418.3h15.63c0.47,0,0.86,0.37,0.86,0.83
			c0,0.46-0.38,0.83-0.86,0.83H171.6c-0.47,0-0.85-0.37-0.85-0.83C170.75,418.67,171.13,418.3,171.6,418.3 M167.66,373.46h12.88
			c0.46,0,0.83,0.39,0.83,0.86v4.74c0,0.47-0.37,0.86-0.83,0.86h-12.88c-0.46,0-0.83-0.39-0.83-0.86v-4.74
			C166.84,373.85,167.21,373.46,167.66,373.46"/>
	</g>
</g>
<path class="st7" d="M344.03,197.39c-15.41,0-27.89,12.49-27.89,27.89c0,15.41,12.49,27.89,27.89,27.89
	c15.4,0,27.89-12.48,27.89-27.89C371.92,209.88,359.43,197.39,344.03,197.39 M343.41,245.04c-2.78,0-4.66-2.05-4.66-4.77
	c0-2.78,1.94-4.76,4.66-4.76c2.83,0,4.66,1.99,4.71,4.76C348.12,242.99,346.24,245.04,343.41,245.04 M349.74,224.45
	c-1.94,2.15-2.72,4.19-2.67,6.55v0.95h-6.97l-0.05-1.36c-0.16-2.67,0.73-5.4,3.09-8.23c1.67-1.99,3.04-3.67,3.04-5.45
	c0-1.83-1.21-3.04-3.83-3.14c-1.73,0-3.83,0.63-5.19,1.57l-1.78-5.71c1.89-1.1,5.03-2.15,8.75-2.15c6.92,0,10.06,3.82,10.06,8.17
	C354.2,219.63,351.73,222.25,349.74,224.45"/>
<g>
	<g>
		<path class="st2" d="M1223.66,422.8c0,1.1-0.29,2-1.67,2h-49.09c-1.38,0-2.5-1.13-2.5-2.5v-46.27c0-1.38,0.9-1.67,2.01-1.67
			c1.1,0,2,0.29,2,1.67v42.27c0,1.37,1.13,2.5,2.5,2.5h45.08C1223.37,420.8,1223.66,421.71,1223.66,422.8"/>
		<path class="st2" d="M1218.98,391.51c0.58,0.37,1,0.11,0.94-0.57l-0.97-10.67c-0.06-0.68-0.64-1.04-1.28-0.8l-10.03,3.75
			c-0.64,0.24-0.69,0.73-0.11,1.1l1.86,1.17c0.58,0.37,0.74,1.13,0.37,1.7l-7.58,11.52c-0.38,0.57-1.21,0.84-1.85,0.6l-11.78-4.46
			c-0.64-0.24-1.52-0.01-1.96,0.52l-7.4,8.96c-0.43,0.53-0.79,1.52-0.79,2.2l-0.04,7.32c0,0.68,0.36,0.81,0.8,0.3l9.53-11.1
			c0.45-0.52,1.33-0.74,1.97-0.5l11.87,4.5c0.64,0.24,1.47-0.02,1.85-0.59l10.63-15.95c0.38-0.57,1.16-0.74,1.74-0.37
			L1218.98,391.51z"/>
	</g>
</g>
<path class="st29" d="M1051.02,219.48c-0.99-5.86-4.04-10.54-8.66-14.2c-5.28-4.18-11.36-6.05-18.05-6.12
	c-2.5-0.01-4.96,0.27-7.37,0.9c-6.83,1.77-12.45,5.34-16.25,11.38c-3.83,6.08-4.48,12.57-1.95,19.32c1.31,3.49,3.46,6.42,6.22,8.91
	c0.31,0.28,0.42,0.52,0.32,0.96c-0.51,2.1-1.62,3.84-3.13,5.33c-1.08,1.07-2.25,2.03-3.36,3.07c-0.37,0.35-0.71,0.75-1,1.17
	c-0.19,0.28-0.17,0.58,0.28,0.67c0.34,0.07,0.68,0.21,1.03,0.27c2.47,0.49,4.9,0.15,7.32-0.39c4.04-0.91,7.87-2.39,11.61-4.14
	c0.41-0.19,0.8-0.24,1.23-0.17c4.16,0.71,8.29,0.58,12.37-0.46c6.84-1.75,12.42-5.36,16.27-11.36
	C1050.88,230,1051.94,224.91,1051.02,219.48z M1022.36,224.81c-0.03,1.87-0.37,3.69-1.23,5.38c-1.3,2.57-3.48,3.94-6.24,4.49
	c-0.61,0.12-0.94,0.19-1.13,0.15c-0.06-0.01-0.1-0.03-0.14-0.07c0,0,0,0,0,0c-0.13-0.14-0.06-0.49-0.08-1.16
	c-0.01-0.65,0.02-1.29-0.01-1.93c-0.02-0.38,0.1-0.62,0.45-0.81c2.44-1.43,3.51-3.65,3.61-6.4c0-0.03-0.03-0.07-0.06-0.16v0h-3.17
	c-0.2,0-0.36,0-0.47-0.01c-0.34-0.04-0.34-0.19-0.34-0.82c0-2.45,0.01-4.89-0.01-7.34c0-0.52,0.17-0.67,0.68-0.67
	c2.5,0.02,5,0.02,7.5,0c0.12,0,0.22,0.01,0.3,0.02c0.25,0.05,0.37,0.21,0.37,0.6C1022.37,218.98,1022.41,221.89,1022.36,224.81z
	 M1037.05,225c-0.02,1.76-0.35,3.47-1.16,5.07c-1.13,2.25-3.05,3.52-5.38,4.27c-0.58,0.19-1.17,0.3-1.76,0.46
	c-0.18,0.05-0.31,0.04-0.39-0.03c-0.08-0.07-0.12-0.19-0.12-0.36c0-0.98-0.02-1.97,0.02-2.95c0.01-0.21,0.23-0.46,0.43-0.58
	c1.29-0.8,2.31-1.84,2.93-3.24c0.19-0.42,0.31-0.85,0.42-1.29c0.15-0.66,0.24-1.34,0.27-2.06c-1.19,0-2.32-0.02-3.44,0.01
	c-0.13,0-0.23-0.01-0.32-0.03c-0.25-0.07-0.33-0.27-0.33-0.63c0.02-2.52,0.02-5.03,0-7.55c0-0.51,0.18-0.64,0.66-0.64
	c2.52,0.02,5.04,0.02,7.55,0c0.22,0,0.38,0.03,0.48,0.12c0.1,0.09,0.15,0.24,0.14,0.48C1037.06,219.03,1037.09,222.01,1037.05,225z"
	/>
<g>
	<text transform="matrix(1 0 0 1 476.3003 444.6943)" class="st6 st10 st14">customised</text>
</g>
<g>
	<text transform="matrix(1 0 0 1 476.3003 696.6318)" class="st6 st10 st14">customised</text>
</g>
<text transform="matrix(1 0 0 1 306.6646 46.3271)" class="st7 st10 st14">customised</text>
<g>
	<text transform="matrix(1 0 0 1 646.6411 46.3271)" class="st5 st10 st14">customised</text>
</g>
<g>
	<text transform="matrix(1 0 0 1 986.875 46.3271)" class="st3 st10 st14">customised</text>
</g>
<g>
	<text transform="matrix(1 0 0 1 643.3394 277.4492)" class="st5 st10 st14">customised</text>
</g>
<g>
	<text transform="matrix(1 0 0 1 986.875 277.4492)" class="st3 st10 st14">customised</text>
</g>
<g>
	<text transform="matrix(1 0 0 1 817.1113 444.6963)" class="st4 st10 st14">customised</text>
</g>
<g>
	<text transform="matrix(1 0 0 1 817.1113 696.6328)" class="st4 st10 st14">customised</text>
</g>
<g>
	<text transform="matrix(1 0 0 1 118.2246 502.2725)" class="st9 st10 st14">GET</text>
</g>
<g>
	<text transform="matrix(1 0 0 1 499.707 502.2725)" class="st6 st10 st14">GET</text>
</g>
<g>
	<text transform="matrix(1 0 0 1 840.5176 502.2725)" class="st4 st10 st14">GET</text>
</g>
<g>
	<text transform="matrix(1 0 0 1 154.2261 502.2725)" class="st9 st10 st14">POST</text>
</g>
<g>
	<text transform="matrix(1 0 0 1 1173.7344 502.2725)" class="st2 st10 st14">POST</text>
</g>
<text transform="matrix(1 0 0 1 309.7969 335.9424)" class="st7 st10 st14">GET</text>
<g>
	<text transform="matrix(1 0 0 1 669.8643 335.9424)" class="st5 st10 st14">GET</text>
</g>
<g>
	<text transform="matrix(1 0 0 1 1009.2012 335.9424)" class="st3 st10 st14">GET</text>
</g>
<text transform="matrix(1 0 0 1 345.7974 335.9424)" class="st7 st10 st14">POST</text>
<g>
	<text transform="matrix(1 0 0 1 199.3179 502.2725)" class="st9 st10 st14">PUT</text>
</g>
</svg>
